<?xml version="1.0" encoding="utf-8"?>
<!-- Generator: Adobe Illustrator 21.0.2, SVG Export Plug-In . SVG Version: 6.00 Build 0)  -->
<svg version="1.1" id="Layer_1" xmlns="http://www.w3.org/2000/svg" xmlns:xlink="http://www.w3.org/1999/xlink" x="0px" y="0px"
	 viewBox="0 0 124.9 154.1" style="enable-background:new 0 0 124.9 154.1;" xml:space="preserve">
<style type="text/css">
	.st0{fill:#662D91;}
</style>
<g>
	<g>
		<g>
			<g>
				<g>
					<path class="st0" d="M0.1,0v154.1l62.4-16.6l62.4,16.6V0H0.1z M59.3,111.9h-8V43.1h-9.6v68.8h-7.2V26.3h7.2v11.2h9.6V26.3h8
						C59.3,26.3,59.3,111.9,59.3,111.9z M90.5,111.9h-8.8V38.4l-4.8,5l-4.8-5v73.5h-7.2V26.3h7.2l4.9,5l4.9-5h8.5v85.6
						C90.4,111.9,90.5,111.9,90.5,111.9z"/>
				</g>
			</g>
		</g>
		<polyline class="st0" points="91.5,24.7 89.3,24.7 89.3,114.1 91.5,114.1 		"/>
	</g>
</g>
</svg>
